<svg id="visual" viewBox="0 0 900 600" width="900" height="600" xmlns="http://www.w3.org/2000/svg" xmlns:xlink="http://www.w3.org/1999/xlink" version="1.1"><path d="M744 600L738.5 592.8C733 585.7 722 571.3 717.3 557C712.7 542.7 714.3 528.3 708.8 514C703.3 499.7 690.7 485.3 693.2 471.2C695.7 457 713.3 443 720.2 428.8C727 414.7 723 400.3 721.3 386C719.7 371.7 720.3 357.3 723.8 343C727.3 328.7 733.7 314.3 734 300C734.3 285.7 728.7 271.3 731.3 257C734 242.7 745 228.3 739.2 214C733.3 199.7 710.7 185.3 709.7 171.2C708.7 157 729.3 143 736.8 128.8C744.3 114.7 738.7 100.3 738.2 86C737.7 71.7 742.3 57.3 739.5 43C736.7 28.7 726.3 14.3 721.2 7.2L716 0L900 0L900 7.2C900 14.3 900 28.7 900 43C900 57.3 900 71.7 900 86C900 100.3 900 114.7 900 128.8C900 143 900 157 900 171.2C900 185.3 900 199.7 900 214C900 228.3 900 242.7 900 257C900 271.3 900 285.7 900 300C900 314.3 900 328.7 900 343C900 357.3 900 371.7 900 386C900 400.3 900 414.7 900 428.8C900 443 900 457 900 471.2C900 485.3 900 499.7 900 514C900 528.3 900 542.7 900 557C900 571.3 900 585.7 900 592.8L900 600Z" fill="#0bff9f"></path><path d="M751 600L757.8 592.8C764.7 585.7 778.3 571.3 782.2 557C786 542.7 780 528.3 774.7 514C769.3 499.7 764.7 485.3 762.2 471.2C759.7 457 759.3 443 761.5 428.8C763.7 414.7 768.3 400.3 763.7 386C759 371.7 745 357.3 741.5 343C738 328.7 745 314.3 753 300C761 285.7 770 271.3 773.5 257C777 242.7 775 228.3 766.8 214C758.7 199.7 744.3 185.3 740.2 171.2C736 157 742 143 750.7 128.8C759.3 114.7 770.7 100.3 775.8 86C781 71.7 780 57.3 776.7 43C773.3 28.7 767.7 14.3 764.8 7.2L762 0L900 0L900 7.2C900 14.3 900 28.7 900 43C900 57.3 900 71.7 900 86C900 100.3 900 114.7 900 128.8C900 143 900 157 900 171.2C900 185.3 900 199.7 900 214C900 228.3 900 242.7 900 257C900 271.3 900 285.7 900 300C900 314.3 900 328.7 900 343C900 357.3 900 371.7 900 386C900 400.3 900 414.7 900 428.8C900 443 900 457 900 471.2C900 485.3 900 499.7 900 514C900 528.3 900 542.7 900 557C900 571.3 900 585.7 900 592.8L900 600Z" fill="#2de7a2"></path><path d="M806 600L804.8 592.8C803.7 585.7 801.3 571.3 805.5 557C809.7 542.7 820.3 528.3 821.2 514C822 499.7 813 485.3 811 471.2C809 457 814 443 814.8 428.8C815.7 414.7 812.3 400.3 814.3 386C816.3 371.7 823.7 357.3 826.3 343C829 328.7 827 314.3 817.8 300C808.7 285.7 792.3 271.3 790 257C787.7 242.7 799.3 228.3 807.8 214C816.3 199.7 821.7 185.3 823.8 171.2C826 157 825 143 817.5 128.8C810 114.7 796 100.3 797.5 86C799 71.7 816 57.3 814.8 43C813.7 28.7 794.3 14.3 784.7 7.2L775 0L900 0L900 7.2C900 14.3 900 28.7 900 43C900 57.3 900 71.7 900 86C900 100.3 900 114.7 900 128.8C900 143 900 157 900 171.2C900 185.3 900 199.7 900 214C900 228.3 900 242.7 900 257C900 271.3 900 285.7 900 300C900 314.3 900 328.7 900 343C900 357.3 900 371.7 900 386C900 400.3 900 414.7 900 428.8C900 443 900 457 900 471.2C900 485.3 900 499.7 900 514C900 528.3 900 542.7 900 557C900 571.3 900 585.7 900 592.8L900 600Z" fill="#45cfa0"></path><path d="M840 600L844.2 592.8C848.3 585.7 856.7 571.3 856.7 557C856.7 542.7 848.3 528.3 849.7 514C851 499.7 862 485.3 864.8 471.2C867.7 457 862.3 443 860.2 428.8C858 414.7 859 400.3 861.8 386C864.7 371.7 869.3 357.3 865.8 343C862.3 328.7 850.7 314.3 842.7 300C834.7 285.7 830.3 271.3 834.2 257C838 242.7 850 228.3 850.8 214C851.7 199.7 841.3 185.3 836.7 171.2C832 157 833 143 836.3 128.8C839.7 114.7 845.3 100.3 843.5 86C841.7 71.7 832.3 57.3 828.3 43C824.3 28.7 825.7 14.3 826.3 7.2L827 0L900 0L900 7.2C900 14.3 900 28.7 900 43C900 57.3 900 71.7 900 86C900 100.3 900 114.7 900 128.8C900 143 900 157 900 171.2C900 185.3 900 199.7 900 214C900 228.3 900 242.7 900 257C900 271.3 900 285.7 900 300C900 314.3 900 328.7 900 343C900 357.3 900 371.7 900 386C900 400.3 900 414.7 900 428.8C900 443 900 457 900 471.2C900 485.3 900 499.7 900 514C900 528.3 900 542.7 900 557C900 571.3 900 585.7 900 592.8L900 600Z" fill="#59b69a"></path></svg>